<?xml version="1.0" encoding="UTF-8"?>
<svg version="1.1" xmlns="http://www.w3.org/2000/svg" width="500" height="500">
<path d="M0 0 C0.99 0.33 1.98 0.66 3 1 C3 1.66 3 2.32 3 3 C3.99 3 4.98 3 6 3 C6 3.66 6 4.32 6 5 C14.56967634 8.48237731 21.98932237 10.2183664 31.25 10.0625 C45.19285542 9.84122847 57.83357942 10.59188653 69.3125 19.375 C75.37438805 25.29591391 80.36684657 32.77901628 81.24609375 41.41796875 C81.24939018 43.28045028 81.13758487 45.14260431 81 47 C79.25049175 44.37573762 78.57857993 42.86408681 77.75 39.9375 C74.71633648 30.624153 69.71423441 22.42904198 60.82348633 17.88842773 C52.27454967 14.39764684 43.94226699 14.43065309 34.875 14.4375 C17.06667344 14.40882007 17.06667344 14.40882007 9 11 C8.01 10.67 7.02 10.34 6 10 C6 9.34 6 8.68 6 8 C5.34 8 4.68 8 4 8 C3.94545591 10.35448675 3.9060721 12.70767875 3.875 15.0625 C3.84019531 17.02896484 3.84019531 17.02896484 3.8046875 19.03515625 C4.00216641 23.0439782 4.74654839 26.20033833 6 30 C6.32097656 31.04800781 6.64195312 32.09601562 6.97265625 33.17578125 C11.00890517 44.79265538 17.22270012 52.13334679 28.12890625 57.84375 C34.66613558 60.47643011 40.53346716 61.3080502 47.5 61.1875 C48.20769531 61.18685547 48.91539062 61.18621094 49.64453125 61.18554688 C53.20702098 61.15623937 56.64791451 60.94917419 60.17578125 60.4453125 C66.67594143 59.68839906 72.69713805 60.4647587 78.1875 64.125 C78.785625 64.74375 79.38375 65.3625 80 66 C74.75262388 53.91589825 66.66344237 44.30957171 54.43359375 38.85546875 C49.64023077 37.14404043 44.77394389 35.93340486 39.8125 34.82421875 C38.88735596 34.61490723 37.96221191 34.4055957 37.0090332 34.18994141 C35.16756867 33.7804438 33.32234586 33.38739909 31.47338867 33.01318359 C25.53782442 31.71680278 21.71410594 29.8523185 17 26 C17.33 25.34 17.66 24.68 18 24 C18.50829346 24.33338379 19.01658691 24.66676758 19.5402832 25.01025391 C25.92134474 28.90423948 31.86896713 30.2083257 39.1875 31.375 C49.19267891 33.14571764 57.34590732 35.62796036 66 41 C66 41.66 66 42.32 66 43 C66.87398437 43.38671875 66.87398437 43.38671875 67.765625 43.78125 C70.1802903 45.09834017 71.81740177 46.55088384 73.75 48.5 C74.36359375 49.1084375 74.9771875 49.716875 75.609375 50.34375 C77 52 77 52 77 54 C77.66 54 78.32 54 79 54 C81.94033413 59.57765673 84.53012914 64.85326729 86 71 C86.40089844 70.29875 86.80179687 69.5975 87.21484375 68.875 C93.258356 58.78877548 100.83048141 50.74983796 112.19140625 46.92578125 C116.32210499 45.92170371 120.08706692 45.67675257 124.3125 45.5625 C130.9187149 45.29319566 136.7902806 44.42591004 143 42 C139.64845892 46.18942634 136.11428396 47.20796487 131 48 C129.14415429 48.16375109 127.28830271 48.32743754 125.43237305 48.49023438 C114.38964713 49.54903615 104.44734906 52.74945275 96.6875 61.1875 C94.62476663 63.73863875 93.60822996 65.7728034 93 69 C93.61875 68.484375 94.2375 67.96875 94.875 67.4375 C99.93556463 65.10964027 104.98493945 66.31406093 110.30078125 67.5234375 C119.79956678 69.20050238 129.64102363 69.30407514 138.1171875 64.38671875 C140.04060527 63.04779737 140.04060527 63.04779737 141.6328125 61.33203125 C143 60 143 60 145 60 C145.27714844 59.2884375 145.55429687 58.576875 145.83984375 57.84375 C147.38014276 54.06820226 149.13477149 50.40368753 150.87890625 46.71875 C152.54079644 42.68852153 153.13606515 39.02784412 153.0625 34.6875 C153.0315625 32.8621875 153.0315625 32.8621875 153 31 C152.17822266 31.34224609 152.17822266 31.34224609 151.33984375 31.69140625 C144.0147284 34.34750499 137.78402352 33.8518311 130.11962891 33.17724609 C115.13505491 31.56786989 115.13505491 31.56786989 101.984375 37.72265625 C98.48400346 41.73981492 96.25695633 46.21159264 94 51 C93.34 51.99 92.68 52.98 92 54 C92.12734228 45.97743663 94.40844522 41.70938448 100 36 C106.26686246 30.44369258 110.35041627 28.85697514 118.75 28.875 C119.72767334 28.87463745 119.72767334 28.87463745 120.72509766 28.87426758 C124.94665721 28.89992902 129.10963726 29.14833829 133.31420898 29.51318359 C142.8028538 30.31580087 148.896982 28.98216651 157 24 C158.97399887 35.329037 157.44625198 47.20328317 151.1875 57.0625 C150.16286646 58.40476994 149.1007056 59.71937137 148 61 C147.46375 61.64453125 146.9275 62.2890625 146.375 62.953125 C140.674755 69.2339505 133.32591013 72.64149321 124.86328125 73.12109375 C119.26192338 73.27058054 114.16408324 72.54531665 108.68359375 71.44921875 C103.65776111 70.60792216 98.85351825 70.38216058 94 72 C88.40449849 82.02216493 88.83169755 97.18793185 88 108 C125.62 108 163.24 108 202 108 C202.33 96.78 202.66 85.56 203 74 C204.32 73.34 205.64 72.68 207 72 C207.99 73.485 207.99 73.485 209 75 C208.67 75.66 208.34 76.32 208 77 C208.66 77.33 209.32 77.66 210 78 C217.43508179 109.02540302 210.94279026 150.41985038 194.95947266 177.78125 C183.40428055 196.43062011 167.36031384 205.99618241 148.34692383 215.66357422 C142.06388201 218.86333665 136.0083924 222.31241376 130 226 C129.04609375 226.55945313 128.0921875 227.11890625 127.109375 227.6953125 C105.62896403 240.71158802 88.45468908 260.14240387 81.7734375 284.69140625 C76.27347451 308.21902571 75.89104474 334.63851592 89 356 C95.31059914 364.6262911 101.71317409 368.496662 112 371 C124.81179329 372.44880337 137.38775251 371.51695715 148.09375 363.7578125 C162.79535478 351.07175031 169.79216688 333.01835193 172 314 C173.52174407 287.75970305 167.33221388 262.7676558 149.8359375 242.4921875 C148.62453592 241.1842599 147.38903091 239.89767036 146.1171875 238.6484375 C145 237 145 237 145.20263672 235.14941406 C146.20913 232.43625827 147.60144838 231.01033433 149.640625 228.9609375 C150.38183594 228.21585938 151.12304688 227.47078125 151.88671875 226.703125 C153.05654297 225.55070312 153.05654297 225.55070312 154.25 224.375 C155.01441406 223.59898437 155.77882813 222.82296875 156.56640625 222.0234375 C157.31277344 221.2809375 158.05914062 220.5384375 158.828125 219.7734375 C159.5077832 219.09716309 160.18744141 218.42088867 160.88769531 217.72412109 C163.16034421 215.86912265 165.23693323 214.9429131 168 214 C172.875 218.625 172.875 218.625 174 222 C174.66 222 175.32 222 176 222 C197.22875668 246.41805346 208.98682355 281.39089977 206.75390625 313.5078125 C204.23762887 340.56704539 194.3452179 364.93584408 176 385 C175.15888672 385.92232422 175.15888672 385.92232422 174.30078125 386.86328125 C173 388 173 388 171 388 C171 388.66 171 389.32 171 390 C158.98913816 402.04714843 138.00268037 406.88053701 121.5 407.25 C100.7539266 406.96318793 82.28187333 398.84302221 67.80078125 384.13671875 C66 382 66 382 66 380 C65.34 380 64.68 380 64 380 C50.13816183 361.48632875 45.81903569 339.43957861 45.75976562 316.74902344 C45.75014246 314.5328089 45.71908656 312.31755717 45.6875 310.1015625 C45.45089197 277.76475702 59.1140563 248.36125415 81.4375 225.3125 C83.37109375 223.36328125 83.37109375 223.36328125 85 222 C85.66 222 86.32 222 87 222 C87 221.34 87 220.68 87 220 C104.1538146 205.5800746 125.30724516 198.14594775 146.4453125 191.6015625 C154.42889184 189.11815264 161.17843698 185.91828431 168.26953125 181.57421875 C171 180 171 180 173 180 C173.33 179.01 173.66 178.02 174 177 C174.78375 176.38125 175.5675 175.7625 176.375 175.125 C179.46574395 172.87119971 179.46574395 172.87119971 182 168 C157.91 168 133.82 168 109 168 C113.62 172.62 118.24 177.24 123 182 C120.75266525 187.61833689 120.75266525 187.61833689 117.6875 190.5 C117.07132812 191.08910156 116.45515625 191.67820313 115.8203125 192.28515625 C115.21960938 192.85105469 114.61890625 193.41695312 114 194 C113.01717294 194.97549253 112.03747927 195.95416377 111.0625 196.9375 C110.381875 197.618125 109.70125 198.29875 109 199 C89.99668678 183.65117009 76.67800335 158.25418948 74 134 C72.47521598 118.76315581 71.44985782 99.68450986 78.1875 85.5 C79.4678047 81.56060092 78.97027826 77.98657807 78 74 C75.68787045 69.54089301 73.51538424 67.15841772 69 65 C65.9489809 64.85436307 65.9489809 64.85436307 62.6875 65.3125 C45.20037927 66.94218979 29.3109039 67.02665415 15 55.37109375 C10.49467818 51.18619352 7.67315704 46.49482281 5 41 C4.62875 40.278125 4.2575 39.55625 3.875 38.8125 C-1.77506173 27.18001996 -2.04125989 13.72262081 -1 1 C-0.67 0.67 -0.34 0.34 0 0 Z M89 117 C88.67661917 125.08084521 88.67661917 125.08084521 91 133 C125.98 133 160.96 133 197 133 C200.16169042 122.41479115 200.16169042 122.41479115 200 117 C163.37 117 126.74 117 89 117 Z M94 142 C94.95245306 144.29427373 95.91162968 146.58531518 96.875 148.875 C97.14441406 149.52597656 97.41382813 150.17695313 97.69140625 150.84765625 C98.88423286 153.66970945 99.81257989 155.81257989 102 158 C104.77126729 158.18810219 107.44180522 158.25176684 110.21337891 158.22705078 C111.0622316 158.22734283 111.91108429 158.22763489 112.78565979 158.22793579 C115.59939699 158.22653928 118.41287139 158.21096303 121.2265625 158.1953125 C123.17426407 158.19158351 125.12196752 158.188736 127.06967163 158.18673706 C132.20224158 158.17909161 137.33469879 158.15943532 142.46722412 158.1373291 C147.70209223 158.11689028 152.93697851 158.10773955 158.171875 158.09765625 C168.44796627 158.07619027 178.72397377 158.04204336 189 158 C190.00419637 155.5433053 191.00350501 153.08481647 192 150.625 C192.28617187 149.92632812 192.57234375 149.22765625 192.8671875 148.5078125 C194.44524399 144.87114039 194.44524399 144.87114039 195 141 C182.71716652 140.97682326 170.43433825 140.95905768 158.15148735 140.94818783 C152.44798891 140.94297069 146.74450545 140.93589422 141.04101562 140.92456055 C135.53619362 140.9136902 130.03138601 140.90771435 124.52655411 140.90512276 C122.42703144 140.903276 120.32750955 140.89966977 118.22799301 140.89426994 C115.28592988 140.88700452 112.34392613 140.88601139 109.40185547 140.88647461 C108.53510696 140.88287933 107.66835846 140.87928406 106.77534485 140.87557983 C102.40105747 140.88302564 98.30734962 141.11991098 94 142 Z " fill="#03BF95" transform="translate(138,24)"/>
<path d="M0 0 C0.99 0.33 1.98 0.66 3 1 C3 1.66 3 2.32 3 3 C3.99 3 4.98 3 6 3 C6 3.66 6 4.32 6 5 C14.56967634 8.48237731 21.98932237 10.2183664 31.25 10.0625 C45.19285542 9.84122847 57.83357942 10.59188653 69.3125 19.375 C75.37438805 25.29591391 80.36684657 32.77901628 81.24609375 41.41796875 C81.24939018 43.28045028 81.13758487 45.14260431 81 47 C79.25049175 44.37573762 78.57857993 42.86408681 77.75 39.9375 C74.71633648 30.624153 69.71423441 22.42904198 60.82348633 17.88842773 C52.27454967 14.39764684 43.94226699 14.43065309 34.875 14.4375 C17.06667344 14.40882007 17.06667344 14.40882007 9 11 C8.01 10.67 7.02 10.34 6 10 C6 9.34 6 8.68 6 8 C5.34 8 4.68 8 4 8 C3.94545591 10.35448675 3.9060721 12.70767875 3.875 15.0625 C3.84019531 17.02896484 3.84019531 17.02896484 3.8046875 19.03515625 C4.00216641 23.0439782 4.74654839 26.20033833 6 30 C6.32097656 31.04800781 6.64195312 32.09601562 6.97265625 33.17578125 C11.00890517 44.79265538 17.22270012 52.13334679 28.12890625 57.84375 C34.66613558 60.47643011 40.53346716 61.3080502 47.5 61.1875 C48.20769531 61.18685547 48.91539062 61.18621094 49.64453125 61.18554688 C53.20702098 61.15623937 56.64791451 60.94917419 60.17578125 60.4453125 C66.67594143 59.68839906 72.69713805 60.4647587 78.1875 64.125 C78.785625 64.74375 79.38375 65.3625 80 66 C74.75262388 53.91589825 66.66344237 44.30957171 54.43359375 38.85546875 C49.64023077 37.14404043 44.77394389 35.93340486 39.8125 34.82421875 C38.88735596 34.61490723 37.96221191 34.4055957 37.0090332 34.18994141 C35.16756867 33.7804438 33.32234586 33.38739909 31.47338867 33.01318359 C25.53782442 31.71680278 21.71410594 29.8523185 17 26 C17.33 25.34 17.66 24.68 18 24 C18.50829346 24.33338379 19.01658691 24.66676758 19.5402832 25.01025391 C25.92134474 28.90423948 31.86896713 30.2083257 39.1875 31.375 C49.19267891 33.14571764 57.34590732 35.62796036 66 41 C66 41.66 66 42.32 66 43 C66.87398437 43.38671875 66.87398437 43.38671875 67.765625 43.78125 C70.1802903 45.09834017 71.81740177 46.55088384 73.75 48.5 C74.36359375 49.1084375 74.9771875 49.716875 75.609375 50.34375 C77 52 77 52 77 54 C77.66 54 78.32 54 79 54 C81.94033413 59.57765673 84.53012914 64.85326729 86 71 C86.40089844 70.29875 86.80179687 69.5975 87.21484375 68.875 C93.258356 58.78877548 100.83048141 50.74983796 112.19140625 46.92578125 C116.32210499 45.92170371 120.08706692 45.67675257 124.3125 45.5625 C130.9187149 45.29319566 136.7902806 44.42591004 143 42 C139.64845892 46.18942634 136.11428396 47.20796487 131 48 C129.14415429 48.16375109 127.28830271 48.32743754 125.43237305 48.49023438 C114.38964713 49.54903615 104.44734906 52.74945275 96.6875 61.1875 C94.62476663 63.73863875 93.60822996 65.7728034 93 69 C93.61875 68.484375 94.2375 67.96875 94.875 67.4375 C99.93556463 65.10964027 104.98493945 66.31406093 110.30078125 67.5234375 C119.79956678 69.20050238 129.64102363 69.30407514 138.1171875 64.38671875 C140.04060527 63.04779737 140.04060527 63.04779737 141.6328125 61.33203125 C143 60 143 60 145 60 C145.27714844 59.2884375 145.55429687 58.576875 145.83984375 57.84375 C147.38014276 54.06820226 149.13477149 50.40368753 150.87890625 46.71875 C152.54079644 42.68852153 153.13606515 39.02784412 153.0625 34.6875 C153.0315625 32.8621875 153.0315625 32.8621875 153 31 C152.17822266 31.34224609 152.17822266 31.34224609 151.33984375 31.69140625 C144.0147284 34.34750499 137.78402352 33.8518311 130.11962891 33.17724609 C115.13505491 31.56786989 115.13505491 31.56786989 101.984375 37.72265625 C98.48400346 41.73981492 96.25695633 46.21159264 94 51 C93.34 51.99 92.68 52.98 92 54 C92.12734228 45.97743663 94.40844522 41.70938448 100 36 C106.26686246 30.44369258 110.35041627 28.85697514 118.75 28.875 C119.72767334 28.87463745 119.72767334 28.87463745 120.72509766 28.87426758 C124.94665721 28.89992902 129.10963726 29.14833829 133.31420898 29.51318359 C142.8028538 30.31580087 148.896982 28.98216651 157 24 C158.97399887 35.329037 157.44625198 47.20328317 151.1875 57.0625 C150.16286646 58.40476994 149.1007056 59.71937137 148 61 C147.46375 61.64453125 146.9275 62.2890625 146.375 62.953125 C140.674755 69.2339505 133.32591013 72.64149321 124.86328125 73.12109375 C119.26192338 73.27058054 114.16408324 72.54531665 108.68359375 71.44921875 C103.65776111 70.60792216 98.85351825 70.38216058 94 72 C88.40449849 82.02216493 88.83169755 97.18793185 88 108 C125.62 108 163.24 108 202 108 C202.33 96.78 202.66 85.56 203 74 C204.32 73.34 205.64 72.68 207 72 C207.99 73.485 207.99 73.485 209 75 C208.67 75.66 208.34 76.32 208 77 C208.66 77.33 209.32 77.66 210 78 C213.92575969 94.38156513 212.83077943 112.54609456 210 129 C209.01 129.33 208.02 129.66 207 130 C207 128.68 207 127.36 207 126 C205.88625 126.37125 204.7725 126.7425 203.625 127.125 C202.68527344 127.43824219 202.68527344 127.43824219 201.7265625 127.7578125 C199.25644918 129.27930002 199.25644918 129.27930002 198 135 C164.67 135 131.34 135 97 135 C97 136.65 97 138.3 97 140 C97.66 140.33 98.32 140.66 99 141 C97.02 141.99 97.02 141.99 95 143 C97.31 147.62 99.62 152.24 102 157 C130.71 157.33 159.42 157.66 189 158 C189.33 156.35 189.66 154.7 190 153 C191.125 156.75 191.125 156.75 190 159 C162.94 159.33 135.88 159.66 108 160 C108.33 160.99 108.66 161.98 109 163 C108.01 163.66 107.02 164.32 106 165 C107.70491156 167.55736733 108.82349425 168.81953371 111.125 170.6875 C115.33840464 174.20901925 119.16490343 178.07525182 123 182 C121.74853952 185.60026068 120.4617113 187.89187231 117.6875 190.5 C117.07132812 191.08910156 116.45515625 191.67820313 115.8203125 192.28515625 C115.21960938 192.85105469 114.61890625 193.41695312 114 194 C113.01717294 194.97549253 112.03747927 195.95416377 111.0625 196.9375 C110.381875 197.618125 109.70125 198.29875 109 199 C89.99668678 183.65117009 76.67800335 158.25418948 74 134 C72.47521598 118.76315581 71.44985782 99.68450986 78.1875 85.5 C79.4678047 81.56060092 78.97027826 77.98657807 78 74 C75.68787045 69.54089301 73.51538424 67.15841772 69 65 C65.9489809 64.85436307 65.9489809 64.85436307 62.6875 65.3125 C45.20037927 66.94218979 29.3109039 67.02665415 15 55.37109375 C10.49467818 51.18619352 7.67315704 46.49482281 5 41 C4.62875 40.278125 4.2575 39.55625 3.875 38.8125 C-1.77506173 27.18001996 -2.04125989 13.72262081 -1 1 C-0.67 0.67 -0.34 0.34 0 0 Z M89 117 C88.67661917 125.08084521 88.67661917 125.08084521 91 133 C125.98 133 160.96 133 197 133 C200.16169042 122.41479115 200.16169042 122.41479115 200 117 C163.37 117 126.74 117 89 117 Z " fill="#09BC94" transform="translate(138,24)"/>
<path d="M0 0 C0.99 0.33 1.98 0.66 3 1 C3 1.66 3 2.32 3 3 C3.99 3 4.98 3 6 3 C6 3.66 6 4.32 6 5 C14.56967634 8.48237731 21.98932237 10.2183664 31.25 10.0625 C45.19285542 9.84122847 57.83357942 10.59188653 69.3125 19.375 C75.37438805 25.29591391 80.36684657 32.77901628 81.24609375 41.41796875 C81.24939018 43.28045028 81.13758487 45.14260431 81 47 C79.25049175 44.37573762 78.57857993 42.86408681 77.75 39.9375 C74.71633648 30.624153 69.71423441 22.42904198 60.82348633 17.88842773 C52.27454967 14.39764684 43.94226699 14.43065309 34.875 14.4375 C17.06667344 14.40882007 17.06667344 14.40882007 9 11 C8.01 10.67 7.02 10.34 6 10 C6 9.34 6 8.68 6 8 C5.34 8 4.68 8 4 8 C3.94545591 10.35448675 3.9060721 12.70767875 3.875 15.0625 C3.84019531 17.02896484 3.84019531 17.02896484 3.8046875 19.03515625 C4.00216641 23.0439782 4.74654839 26.20033833 6 30 C6.32097656 31.04800781 6.64195312 32.09601562 6.97265625 33.17578125 C11.00890517 44.79265538 17.22270012 52.13334679 28.12890625 57.84375 C34.66613558 60.47643011 40.53346716 61.3080502 47.5 61.1875 C48.20769531 61.18685547 48.91539062 61.18621094 49.64453125 61.18554688 C53.20702098 61.15623937 56.64791451 60.94917419 60.17578125 60.4453125 C66.67594143 59.68839906 72.69713805 60.4647587 78.1875 64.125 C78.785625 64.74375 79.38375 65.3625 80 66 C74.75262388 53.91589825 66.66344237 44.30957171 54.43359375 38.85546875 C49.64023077 37.14404043 44.77394389 35.93340486 39.8125 34.82421875 C38.88735596 34.61490723 37.96221191 34.4055957 37.0090332 34.18994141 C35.16756867 33.7804438 33.32234586 33.38739909 31.47338867 33.01318359 C25.53782442 31.71680278 21.71410594 29.8523185 17 26 C17.33 25.34 17.66 24.68 18 24 C18.50829346 24.33338379 19.01658691 24.66676758 19.5402832 25.01025391 C25.92134474 28.90423948 31.86896713 30.2083257 39.1875 31.375 C49.19267891 33.14571764 57.34590732 35.62796036 66 41 C66 41.66 66 42.32 66 43 C66.87398437 43.38671875 66.87398437 43.38671875 67.765625 43.78125 C70.1802903 45.09834017 71.81740177 46.55088384 73.75 48.5 C74.36359375 49.1084375 74.9771875 49.716875 75.609375 50.34375 C77 52 77 52 77 54 C77.66 54 78.32 54 79 54 C81.94033413 59.57765673 84.53012914 64.85326729 86 71 C86.40089844 70.29875 86.80179687 69.5975 87.21484375 68.875 C93.258356 58.78877548 100.83048141 50.74983796 112.19140625 46.92578125 C116.32210499 45.92170371 120.08706692 45.67675257 124.3125 45.5625 C130.9187149 45.29319566 136.7902806 44.42591004 143 42 C139.64845892 46.18942634 136.11428396 47.20796487 131 48 C129.14415429 48.16375109 127.28830271 48.32743754 125.43237305 48.49023438 C114.38964713 49.54903615 104.44734906 52.74945275 96.6875 61.1875 C94.62476663 63.73863875 93.60822996 65.7728034 93 69 C93.61875 68.484375 94.2375 67.96875 94.875 67.4375 C99.93556463 65.10964027 104.98493945 66.31406093 110.30078125 67.5234375 C119.79956678 69.20050238 129.64102363 69.30407514 138.1171875 64.38671875 C140.04060527 63.04779737 140.04060527 63.04779737 141.6328125 61.33203125 C143 60 143 60 145 60 C145.27714844 59.2884375 145.55429687 58.576875 145.83984375 57.84375 C147.38014276 54.06820226 149.13477149 50.40368753 150.87890625 46.71875 C152.54079644 42.68852153 153.13606515 39.02784412 153.0625 34.6875 C153.0315625 32.8621875 153.0315625 32.8621875 153 31 C152.17822266 31.34224609 152.17822266 31.34224609 151.33984375 31.69140625 C144.0147284 34.34750499 137.78402352 33.8518311 130.11962891 33.17724609 C115.13505491 31.56786989 115.13505491 31.56786989 101.984375 37.72265625 C98.48400346 41.73981492 96.25695633 46.21159264 94 51 C93.34 51.99 92.68 52.98 92 54 C92.12734228 45.97743663 94.40844522 41.70938448 100 36 C106.26686246 30.44369258 110.35041627 28.85697514 118.75 28.875 C119.72767334 28.87463745 119.72767334 28.87463745 120.72509766 28.87426758 C124.94665721 28.89992902 129.10963726 29.14833829 133.31420898 29.51318359 C142.8028538 30.31580087 148.896982 28.98216651 157 24 C158.97399887 35.329037 157.44625198 47.20328317 151.1875 57.0625 C150.16286646 58.40476994 149.1007056 59.71937137 148 61 C147.46375 61.64453125 146.9275 62.2890625 146.375 62.953125 C140.674755 69.2339505 133.32591013 72.64149321 124.86328125 73.12109375 C119.26192338 73.27058054 114.16408324 72.54531665 108.68359375 71.44921875 C103.65776111 70.60792216 98.85351825 70.38216058 94 72 C93.00815397 73.92525653 93.00815397 73.92525653 92.375 76.25 C92.12878906 77.05824219 91.88257813 77.86648437 91.62890625 78.69921875 C90.96774674 81.11799485 90.39941191 83.52364616 90 86 C89.67 86 89.34 86 89 86 C88.505 81.545 88.505 81.545 88 77 C86.02 76.505 86.02 76.505 84 76 C83.505 77.485 83.505 77.485 83 79 C82.03126968 80.35622245 81.03565785 81.69417053 80 83 C79.84144531 82.27554688 79.68289062 81.55109375 79.51953125 80.8046875 C78.04080207 74.67735666 76.89655173 70.1348659 72 66 C66.95962458 64.73990614 62.82531821 65.07152614 57.73828125 65.73046875 C41.93199246 67.28629461 27.69810462 65.71310474 15 55.37109375 C10.49467818 51.18619352 7.67315704 46.49482281 5 41 C4.62875 40.278125 4.2575 39.55625 3.875 38.8125 C-1.77506173 27.18001996 -2.04125989 13.72262081 -1 1 C-0.67 0.67 -0.34 0.34 0 0 Z " fill="#1EB395" transform="translate(138,24)"/>
<path d="M0 0 C0.67908451 12.09776474 -1.82979096 23.68086117 -6 35 C-7.25541557 31.23375329 -6.37061958 29.62811066 -5 26 C-5.5775 26.20625 -6.155 26.4125 -6.75 26.625 C-9.51967567 27.08661261 -10.64561267 26.42944945 -13 25 C-13 24.01 -13 23.02 -13 22 C-14.485 22.495 -14.485 22.495 -16 23 C-15.34 20.69 -14.68 18.38 -14 16 C-15.16476364 16.1065818 -15.16476364 16.1065818 -16.35305786 16.21531677 C-26.97440068 17.08925139 -37.52943525 17.12866957 -48.1796875 17.09765625 C-50.08781904 17.09578663 -51.99595106 17.0943653 -53.90408325 17.09336853 C-58.87861502 17.08958617 -63.85311668 17.07979346 -68.82763672 17.06866455 C-73.92284742 17.05835738 -79.01806308 17.05385115 -84.11328125 17.04882812 C-94.07553392 17.0381665 -104.03776444 17.02114279 -114 17 C-113.34 16.34 -112.68 15.68 -112 15 C-112 13.35 -112 11.7 -112 10 C-78.67 10 -45.34 10 -11 10 C-11 8.35 -11 6.7 -11 5 C-8.78927903 1.48885493 -4.06606588 0 0 0 Z " fill="#01C096" transform="translate(347,149)"/>
<path d="M0 0 C1.32 0.66 2.64 1.32 4 2 C3.67 2.99 3.34 3.98 3 5 C3.99 5.495 3.99 5.495 5 6 C8.92575969 22.38156513 7.83077943 40.54609456 5 57 C3.515 57.495 3.515 57.495 2 58 C2 56.68 2 55.36 2 54 C-2.54170996 55.90884692 -2.54170996 55.90884692 -7 58 C-6.85769192 56.58297487 -6.71099254 55.1663904 -6.5625 53.75 C-6.48128906 52.96109375 -6.40007812 52.1721875 -6.31640625 51.359375 C-6 49 -6 49 -5 45 C-41.96 45 -78.92 45 -117 45 C-117 44.34 -117 43.68 -117 43 C-78.33333333 43 -39.66666667 43 -1 43 C-1 42.34 -1 41.68 -1 41 C-1 39.33333333 -1 37.66666667 -1 36 C-1.66 36 -2.32 36 -3 36 C-2.90657189 31.19414942 -2.80050341 26.38880906 -2.68261719 21.58349609 C-2.64429148 19.9481576 -2.60944493 18.31273376 -2.578125 16.67724609 C-2.53255158 14.3287909 -2.47454633 11.98092505 -2.4140625 9.6328125 C-2.40251129 8.89942657 -2.39096008 8.16604065 -2.37905884 7.41043091 C-2.22774341 2.22774341 -2.22774341 2.22774341 0 0 Z " fill="#14B892" transform="translate(343,96)"/>
<path d="M0 0 C0.12375 0.78375 0.2475 1.5675 0.375 2.375 C0.79117993 5.14057822 0.79117993 5.14057822 3 7 C1.35 7.66 -0.3 8.32 -2 9 C-2 8.34 -2 7.68 -2 7 C-2.5547595 7.00184359 -3.109519 7.00368717 -3.6810894 7.00558662 C-17.16762155 7.0497183 -30.65414108 7.08270589 -44.1407299 7.10362434 C-50.66269488 7.1140792 -57.1846079 7.12826937 -63.70654297 7.15087891 C-69.99589679 7.17254669 -76.28520052 7.18455579 -82.57458878 7.18975449 C-84.97886062 7.19346117 -87.3831296 7.20069897 -89.78738022 7.21146011 C-93.14461021 7.22589441 -96.50163089 7.22798133 -99.85888672 7.22705078 C-101.36292053 7.23783661 -101.36292053 7.23783661 -102.89733887 7.24884033 C-103.80881683 7.246091 -104.7202948 7.24334167 -105.65939331 7.24050903 C-106.85127164 7.24327441 -106.85127164 7.24327441 -108.06722832 7.24609566 C-110 7 -110 7 -112 5 C-112 3.68 -112 2.36 -112 1 C-97.69232342 0.86950585 -83.38464588 0.73911645 -69.07696724 0.60884857 C-62.43396079 0.54836256 -55.79095466 0.48784259 -49.14794922 0.42724609 C-42.74189194 0.36881223 -36.33583388 0.31046617 -29.92977524 0.25218201 C-27.48085374 0.22988539 -25.03193254 0.20755667 -22.58301163 0.18519592 C-19.16357752 0.15397895 -15.74414241 0.12287419 -12.32470703 0.09179688 C-11.30331635 0.08244614 -10.28192566 0.0730954 -9.22958374 0.0634613 C-8.30127747 0.05504715 -7.37297119 0.046633 -6.41653442 0.03796387 C-5.60720018 0.03058952 -4.79786594 0.02321518 -3.96400642 0.01561737 C-2.64270247 0.00511064 -1.32134573 0 0 0 Z " fill="#02BF96" transform="translate(342,132)"/>
<path d="M0 0 C0.67908451 12.09776474 -1.82979096 23.68086117 -6 35 C-7.25541557 31.23375329 -6.37061958 29.62811066 -5 26 C-5.5775 26.20625 -6.155 26.4125 -6.75 26.625 C-9.51967567 27.08661261 -10.64561267 26.42944945 -13 25 C-13 24.01 -13 23.02 -13 22 C-14.485 22.495 -14.485 22.495 -16 23 C-15.34 20.69 -14.68 18.38 -14 16 C-14.81530182 16.07064667 -15.63060364 16.14129333 -16.47061157 16.21408081 C-25.9390155 16.97004734 -35.34338561 17.1474016 -44.8359375 17.1328125 C-46.41102107 17.13348841 -47.98610453 17.1344608 -49.56118774 17.13571167 C-52.8336081 17.13717258 -56.10600086 17.13508471 -59.37841797 17.13037109 C-63.55410621 17.12464621 -67.72973053 17.1279804 -71.90541649 17.13394356 C-75.14662146 17.13756866 -78.38781143 17.13640212 -81.62901688 17.13381577 C-83.16866692 17.13315336 -84.70831837 17.13395065 -86.24796677 17.13629532 C-100.96596698 17.15381516 -100.96596698 17.15381516 -108 16 C-108 15.67 -108 15.34 -108 15 C-106.44144791 14.98786972 -106.44144791 14.98786972 -104.85140991 14.97549438 C-95.05221845 14.89795862 -85.25316456 14.8102005 -75.45415306 14.71247292 C-70.41656617 14.66255951 -65.37899975 14.61622896 -60.34130859 14.578125 C-55.47828248 14.5412097 -50.61542966 14.49483265 -45.75255203 14.44193649 C-43.89867828 14.42342575 -42.04476742 14.40830557 -40.19083786 14.39665604 C-37.59107526 14.37973676 -34.99170667 14.3506881 -32.39208984 14.31884766 C-31.62819946 14.31668747 -30.86430908 14.31452728 -30.07727051 14.31230164 C-25.65661133 14.24328429 -22.14712144 13.46256921 -18 12 C-15.625 12.875 -15.625 12.875 -14 14 C-11.65113568 12.05925114 -11.65113568 12.05925114 -11.5625 8.5625 C-11 5 -11 5 -9.875 3.1875 C-7.04056673 1.39235893 -3.40245561 0 0 0 Z " fill="#08C9AA" transform="translate(347,149)"/>
<path d="M0 0 C0.86963379 0.50007568 0.86963379 0.50007568 1.75683594 1.01025391 C8.49067875 4.655872 14.73583246 6.16760218 22.25 7.375 C32.22734696 9.14808053 40.36865039 11.64207815 49 17 C49 17.66 49 18.32 49 19 C49.87398437 19.38671875 49.87398437 19.38671875 50.765625 19.78125 C53.1802903 21.09834017 54.81740177 22.55088384 56.75 24.5 C57.67039062 25.41265625 57.67039062 25.41265625 58.609375 26.34375 C60 28 60 28 60 30 C60.66 30 61.32 30 62 30 C62.66 31.98 63.32 33.96 64 36 C63.01 36.33 62.02 36.66 61 37 C60.55011719 36.31035156 60.10023438 35.62070313 59.63671875 34.91015625 C48.20206505 18.20502088 35.09561815 13.34247304 16.01367188 9.37695312 C9.56709574 7.93872003 4.97275922 6.43208726 0 2 C0 1.34 0 0.68 0 0 Z " fill="#2DAB8C" transform="translate(155,48)"/>
<path d="M0 0 C5.82986292 5.5589804 10.35125239 13.12201502 11.1796875 21.26171875 C11.18298393 23.12420028 11.07117862 24.98635431 10.93359375 26.84375 C9.1840855 24.21948762 8.51217368 22.70783681 7.68359375 19.78125 C4.58967155 10.28290886 -0.44551641 2.52070846 -9.25390625 -2.37109375 C-18.32076446 -6.35201118 -28.33292958 -5.96558444 -38.06640625 -6.15625 C-38.06640625 -6.48625 -38.06640625 -6.81625 -38.06640625 -7.15625 C-41.03640625 -7.65125 -41.03640625 -7.65125 -44.06640625 -8.15625 C-44.06640625 -8.48625 -44.06640625 -8.81625 -44.06640625 -9.15625 C-27.9927884 -10.86620935 -12.9193736 -10.869776 0 0 Z " fill="#42AD9D" transform="translate(208.06640625,44.15625)"/>
<path d="M0 0 C0.66 0.33 1.32 0.66 2 1 C-2.9789005 5.56399213 -9.12363493 5.93274033 -15.56762695 6.49243164 C-26.55410699 7.53410692 -36.7168128 10.6298788 -44.125 19.375 C-44.60195312 20.04273437 -45.07890625 20.71046875 -45.5703125 21.3984375 C-47.28700741 23.32151103 -48.49058235 23.62304885 -51 24 C-48.64313365 16.61688827 -41.7948465 11.48137311 -35.3125 7.5625 C-29.05725095 4.61191083 -23.3585502 3.74348466 -16.5625 3.5625 C-10.42142118 3.32032407 -5.657941 2.54030004 0 0 Z " fill="#2FAF99" transform="translate(279,66)"/>
<path d="M0 0 C1.32 0.66 2.64 1.32 4 2 C3.67 2.99 3.34 3.98 3 5 C3.66 5.33 4.32 5.66 5 6 C7.192264 15.87872049 7.25697967 25.93496291 7 36 C6.67 36 6.34 36 6 36 C6 31.38 6 26.76 6 22 C5.34 22 4.68 22 4 22 C4 18.04 4 14.08 4 10 C3.01 10 2.02 10 1 10 C0.86722656 11.29035156 0.73445313 12.58070312 0.59765625 13.91015625 C0.41934123 15.62761148 0.24095187 17.34505899 0.0625 19.0625 C-0.02451172 19.91005859 -0.11152344 20.75761719 -0.20117188 21.63085938 C-0.70242013 26.43912966 -1.28000533 31.21949483 -2 36 C-2.33 36 -2.66 36 -3 36 C-2.90657189 31.19414942 -2.80050341 26.38880906 -2.68261719 21.58349609 C-2.64429148 19.9481576 -2.60944493 18.31273376 -2.578125 16.67724609 C-2.53255158 14.3287909 -2.47454633 11.98092505 -2.4140625 9.6328125 C-2.40251129 8.89942657 -2.39096008 8.16604065 -2.37905884 7.41043091 C-2.22774341 2.22774341 -2.22774341 2.22774341 0 0 Z " fill="#10B289" transform="translate(343,96)"/>
<path d="M0 0 C0.680625 -0.020625 1.36125 -0.04125 2.0625 -0.0625 C4.0390625 -0.078125 4.0390625 -0.078125 7.375 0.25 C8.035 1.24 8.695 2.23 9.375 3.25 C8.11945313 3.24097656 6.86390625 3.23195312 5.5703125 3.22265625 C-6.91815004 3.24178236 -6.91815004 3.24178236 -17.67578125 9.0078125 C-21.15776654 13.01314227 -23.37691264 17.48040926 -25.625 22.25 C-26.285 23.24 -26.945 24.23 -27.625 25.25 C-27.49765772 17.22743663 -25.21655478 12.95938448 -19.625 7.25 C-13.12837545 1.48998157 -8.66145645 0.06637131 0 0 Z " fill="#32BAA3" transform="translate(257.625,52.75)"/>
<path d="M0 0 C4 2 4 2 4.9765625 4.34765625 C5.19054687 5.24355469 5.40453125 6.13945313 5.625 7.0625 C6.02983024 8.72230399 6.47784557 10.37328812 7 12 C7.66 12.33 8.32 12.66 9 13 C9 13.66 9 14.32 9 15 C9.99 15 10.98 15 12 15 C12.08159574 19.16138263 11.98248524 22.9472484 11 27 C10.67 27 10.34 27 10 27 C9.67 24.03 9.34 21.06 9 18 C7.68 17.67 6.36 17.34 5 17 C4.67 17.99 4.34 18.98 4 20 C2.9375 18.125 2.9375 18.125 2 16 C3 14 3 14 6 13 C4.824375 13.0928125 4.824375 13.0928125 3.625 13.1875 C2.325625 13.0946875 2.325625 13.0946875 1 13 C0.34 12.01 -0.32 11.02 -1 10 C-0.34 9.67 0.32 9.34 1 9 C0.67 6.03 0.34 3.06 0 0 Z " fill="#1EBD9E" transform="translate(217,83)"/>
<path d="M0 0 C1.125 3.75 1.125 3.75 0 6 C-44.055 6.495 -44.055 6.495 -89 7 C-89.33 5.68 -89.66 4.36 -90 3 C-89.01 3.495 -89.01 3.495 -88 4 C-85.25471169 4.12258264 -82.53313968 4.18571787 -79.78662109 4.20532227 C-78.51334206 4.22017166 -78.51334206 4.22017166 -77.21434021 4.23532104 C-74.40073462 4.26697917 -71.58711212 4.29171049 -68.7734375 4.31640625 C-66.82572992 4.33697206 -64.87802684 4.35796843 -62.93032837 4.37937927 C-57.7978479 4.43463852 -52.66532689 4.48403079 -47.53277588 4.53222656 C-42.29785545 4.58241348 -37.06299406 4.63811419 -31.828125 4.69335938 C-21.55213374 4.80098806 -11.27609127 4.90242256 -1 5 C-0.67 3.35 -0.34 1.7 0 0 Z " fill="#24A890" transform="translate(328,177)"/>
<path d="M0 0 C1.15068212 3.43794609 0.81018313 5.81353323 0.07421875 9.33203125 C-1.21692305 16.47837621 -1.25960037 23.44331064 -1.1875 30.6875 C-1.18685547 31.96044922 -1.18621094 33.23339844 -1.18554688 34.54492188 C-1.70492782 40.14233417 -1.70492782 40.14233417 0 45 C0.23653523 47.52596259 0.42173692 50.03107207 0.5625 52.5625 C0.60568359 53.27341797 0.64886719 53.98433594 0.69335938 54.71679688 C0.79971777 56.47761912 0.90038846 58.2387832 1 60 C-8.09793719 46.35309422 -4.2543383 21.10382978 -1.41796875 5.875 C-0.99039848 3.90633115 -0.50557966 1.95009297 0 0 Z " fill="#2DA88F" transform="translate(215,112)"/>
<path d="M0 0 C0.33 0 0.66 0 1 0 C1.33 4.62 1.66 9.24 2 14 C2.66 13.34 3.32 12.68 4 12 C4.06058594 12.61488281 4.12117187 13.22976562 4.18359375 13.86328125 C4.26738281 14.67152344 4.35117188 15.47976562 4.4375 16.3125 C4.51871094 17.11300781 4.59992188 17.91351563 4.68359375 18.73828125 C4.95265693 21.16087179 4.95265693 21.16087179 6 24 C5.5625 26.1875 5.5625 26.1875 5 28 C5 27.34 5 26.68 5 26 C4.34 26 3.68 26 3 26 C3.66 28.97 4.32 31.94 5 35 C-0.473811 29.526189 -0.16390963 18.61299849 -0.20654297 11.22436523 C-0.1791181 7.48087122 -0.10771496 3.74209747 0 0 Z " fill="#25AF91" transform="translate(137,26)"/>
<path d="M0 0 C5.29012124 4.40843437 10.18808428 9.07559794 15 14 C13.58902801 17.88335083 12.53556325 19.76080994 9 22 C9 21.01 9 20.02 9 19 C8.34 18.67 7.68 18.34 7 18 C7.66 18 8.32 18 9 18 C8.835 17.236875 8.67 16.47375 8.5 15.6875 C8 13 8 13 8 10 C6.36395804 8.62926214 4.69321939 7.29944744 3 6 C0 2.48275862 0 2.48275862 0 0 Z " fill="#15B18F" transform="translate(246,192)"/>
<path d="M0 0 C0 0.99 0 1.98 0 3 C-6.6 3 -13.2 3 -20 3 C-20 2.67 -20 2.34 -20 2 C-22.97 1.505 -22.97 1.505 -26 1 C-26 0.67 -26 0.34 -26 0 C-17.17755905 -0.93855755 -8.82244095 -0.93855755 0 0 Z " fill="#2FBA9E" transform="translate(190,35)"/>
<path d="M0 0 C0.66 0.33 1.32 0.66 2 1 C-3.67579466 6.20281177 -12.16555446 6.39633359 -19.5 7.125 C-20.32242187 7.21136719 -21.14484375 7.29773438 -21.9921875 7.38671875 C-23.99426526 7.59623852 -25.99706397 7.79885044 -28 8 C-28 7.01 -28 6.02 -28 5 C-24.27201237 3.75733746 -20.70032023 3.76716129 -16.8125 3.625 C-10.59856053 3.34911547 -5.7225593 2.56931234 0 0 Z " fill="#48B7A6" transform="translate(279,66)"/>
<path d="M0 0 C0.268125 0.556875 0.53625 1.11375 0.8125 1.6875 C3.24164023 7.08166098 3.24164023 7.08166098 8 10 C8.99 9.67 9.98 9.34 11 9 C11 10.32 11 11.64 11 13 C11.97448076 16.89792303 13.03241541 20.48645609 15 24 C10.43161106 20.77912147 7.7415128 17.11266195 4.75 12.5 C4.30398437 11.83613281 3.85796875 11.17226562 3.3984375 10.48828125 C-0.37643263 4.75734206 -0.37643263 4.75734206 -1 1 C-0.67 0.67 -0.34 0.34 0 0 Z " fill="#1AB492" transform="translate(226,193)"/>
<path d="M0 0 C1.32 0.66 2.64 1.32 4 2 C3.67 2.66 3.34 3.32 3 4 C2.01 4 1.02 4 0 4 C0.02320313 5.22074219 0.04640625 6.44148438 0.0703125 7.69921875 C0.19630865 17.37237608 -0.08631803 26.48284948 -2 36 C-2.33 36 -2.66 36 -3 36 C-2.90657189 31.19414942 -2.80050341 26.38880906 -2.68261719 21.58349609 C-2.64429148 19.9481576 -2.60944493 18.31273376 -2.578125 16.67724609 C-2.53255158 14.3287909 -2.47454633 11.98092505 -2.4140625 9.6328125 C-2.40251129 8.89942657 -2.39096008 8.16604065 -2.37905884 7.41043091 C-2.22774341 2.22774341 -2.22774341 2.22774341 0 0 Z " fill="#1FAF94" transform="translate(343,96)"/>
<path d="M0 0 C2.90182859 1.31901299 4.23086073 3.38628816 6.0625 5.9375 C5.7325 6.5975 5.4025 7.2575 5.0625 7.9375 C4.0725 7.2775 3.0825 6.6175 2.0625 5.9375 C-0.11209425 6.09347124 -0.11209425 6.09347124 -2.375 6.75 C-3.13683594 6.94207031 -3.89867187 7.13414062 -4.68359375 7.33203125 C-5.42738281 7.53183594 -6.17117188 7.73164063 -6.9375 7.9375 C-8.27043027 8.27244145 -9.6036322 8.60631187 -10.9375 8.9375 C-10.00475891 7.80855124 -9.06609878 6.68449124 -8.125 5.5625 C-7.60292969 4.93601563 -7.08085937 4.30953125 -6.54296875 3.6640625 C-4.56565607 1.53760944 -3.03297291 -0.09783784 0 0 Z " fill="#13B691" transform="translate(305.9375,238.0625)"/>
<path d="M0 0 C0.33 0.66 0.66 1.32 1 2 C2.05960938 1.97679688 3.11921875 1.95359375 4.2109375 1.9296875 C5.5989513 1.91093056 6.9869727 1.89273028 8.375 1.875 C9.42300781 1.84986328 9.42300781 1.84986328 10.4921875 1.82421875 C12.32897486 1.80655733 14.16601963 1.89696739 16 2 C16.66 2.66 17.32 3.32 18 4 C15.96519016 6.03480984 11.91279983 5.18507583 9.125 5.1875 C8.02478516 5.20586914 8.02478516 5.20586914 6.90234375 5.22460938 C3.06436486 5.23509566 1.26652926 5.17768617 -2 3 C-2 2.34 -2 1.68 -2 1 C-1.34 0.67 -0.68 0.34 0 0 Z " fill="#10B799" transform="translate(176,85)"/>
<path d="M0 0 C0.825 0.13277344 1.65 0.26554687 2.5 0.40234375 C11.66664289 1.80393982 20.7448436 2.54325202 30 3 C30 3.33 30 3.66 30 4 C27.20826945 4.02690104 24.41679652 4.04679053 21.625 4.0625 C20.43390625 4.07506836 20.43390625 4.07506836 19.21875 4.08789062 C13.2265625 4.11328125 13.2265625 4.11328125 11 3 C11 3.66 11 4.32 11 5 C6.71 4.67 2.42 4.34 -2 4 C-0.68 3.34 0.64 2.68 2 2 C1.34 1.34 0.68 0.68 0 0 Z " fill="#29AD91" transform="translate(237,90)"/>
<path d="M0 0 C0.33 0.99 0.66 1.98 1 3 C-0.299375 3.8971875 -0.299375 3.8971875 -1.625 4.8125 C-5.50595548 8.00371221 -7.45119773 12.05745792 -9.703125 16.4765625 C-11 19 -11 19 -13 22 C-12.87241833 13.96235492 -10.50025809 9.78974536 -5 4 C-2.0625 1.4375 -2.0625 1.4375 0 0 Z " fill="#50B0A3" transform="translate(243,56)"/>
<path d="M0 0 C0.87398437 0.48919922 0.87398437 0.48919922 1.765625 0.98828125 C7.57381932 4.08415841 13.10786245 5.99813446 19.53125 7.421875 C22 8 22 8 24 9 C23.67 9.66 23.34 10.32 23 11 C5.51971911 7.24373316 5.51971911 7.24373316 0 2 C0 1.34 0 0.68 0 0 Z " fill="#42AF9E" transform="translate(155,48)"/>
<path d="M0 0 C0.33 0.66 0.66 1.32 1 2 C0.34188488 3.73694309 -0.40490607 5.44047231 -1.1875 7.125 C-4.41798071 14.54247246 -6.21455134 22.14003607 -8 30 C-8.33 30 -8.66 30 -9 30 C-8.88597936 27.72858891 -8.75841495 25.45785448 -8.625 23.1875 C-8.55539063 21.92292969 -8.48578125 20.65835937 -8.4140625 19.35546875 C-8 16 -8 16 -6 13 C-4.90497768 9.92024973 -3.94461808 6.8165474 -3 3.6875 C-2 1 -2 1 0 0 Z " fill="#20AD8F" transform="translate(225,291)"/>
<path d="M0 0 C6.30267439 0.36776168 11.33251843 1.16625922 17 4 C17 4.66 17 5.32 17 6 C11.86496656 5.35812082 7.0056546 4.31727753 2 3 C2 2.34 2 1.68 2 1 C1.34 0.67 0.68 0.34 0 0 Z " fill="#3CAC92" transform="translate(177,56)"/>
<path d="M0 0 C0.66 0.33 1.32 0.66 2 1 C1.401875 1.7425 0.80375 2.485 0.1875 3.25 C-1.09126979 4.85759631 -2.33830811 6.493366 -3.5 8.1875 C-5 10 -5 10 -6.9375 10.875 C-9.98306264 12.53621598 -11.22822768 15.08923119 -13 18 C-13.66 17.67 -14.32 17.34 -15 17 C-10.43071457 10.83146467 -5.55661824 5.29682829 0 0 Z " fill="#21B08F" transform="translate(223,246)"/>
<path d="M0 0 C0 3 0 3 -1 6 C-0.67 6.66 -0.34 7.32 0 8 C-1.175625 8.680625 -1.175625 8.680625 -2.375 9.375 C-5.03698031 10.88428742 -5.03698031 10.88428742 -7 13 C-9.125 12.625 -9.125 12.625 -11 12 C-10.54109375 11.55269531 -10.0821875 11.10539062 -9.609375 10.64453125 C-6.16447701 7.25029352 -2.92744915 3.86423288 0 0 Z " fill="#1AB190" transform="translate(298,375)"/>
<path d="M0 0 C1.65 0 3.3 0 5 0 C4.07161713 1.31896465 3.13194268 2.62998689 2.1875 3.9375 C1.40439453 5.03384766 1.40439453 5.03384766 0.60546875 6.15234375 C-1 8 -1 8 -4 9 C-5.65 7.02 -7.3 5.04 -9 3 C-6.23723823 3.52268466 -3.6739124 4.10869587 -1 5 C-0.67 3.35 -0.34 1.7 0 0 Z " fill="#1BAE8D" transform="translate(250,214)"/>
<path d="M0 0 C1.47417409 3.83285264 0.38262873 6.25876932 -1 10 C-1 10.66 -1 11.32 -1 12 C-1.99 11.67 -2.98 11.34 -4 11 C-4.66 11.66 -5.32 12.32 -6 13 C-8.125 13.625 -8.125 13.625 -10 14 C-9 11 -9 11 -6.6875 9.25 C-3.35703458 6.46170337 -1.99109552 3.83470248 0 0 Z " fill="#14B68F" transform="translate(321,190)"/>
<path d="M0 0 C2.97 0.495 2.97 0.495 6 1 C3.63078826 3.71212397 1.32893261 4.92238997 -2 6.25 C-3.299375 6.78367187 -3.299375 6.78367187 -4.625 7.328125 C-7 8 -7 8 -10 7 C-8.35 6.67 -6.7 6.34 -5 6 C-5 5.34 -5 4.68 -5 4 C-4.360625 3.71125 -3.72125 3.4225 -3.0625 3.125 C-0.84793921 2.17176549 -0.84793921 2.17176549 0 0 Z " fill="#1BB796" transform="translate(292,419)"/>
<path d="M0 0 C0.33 0 0.66 0 1 0 C1.06058594 0.71027344 1.12117187 1.42054688 1.18359375 2.15234375 C1.26738281 3.07144531 1.35117188 3.99054688 1.4375 4.9375 C1.51871094 5.85402344 1.59992188 6.77054688 1.68359375 7.71484375 C1.76044976 9.96159732 1.76044976 9.96159732 3 11 C3.23653523 13.52596259 3.42173692 16.03107207 3.5625 18.5625 C3.60568359 19.27341797 3.64886719 19.98433594 3.69335938 20.71679688 C3.79971777 22.47761912 3.90038846 24.2387832 4 26 C-0.94953972 18.57569041 -0.27045976 8.6096356 0 0 Z " fill="#24B190" transform="translate(212,146)"/>
<path d="M0 0 C2 2 2 2 2.4375 4.4375 C2 7 2 7 -0.375 8.8125 C-3 10 -3 10 -5 10 C-4.55090939 8.51800098 -4.09043436 7.03944764 -3.625 5.5625 C-3.36976563 4.73878906 -3.11453125 3.91507812 -2.8515625 3.06640625 C-2 1 -2 1 0 0 Z " fill="#13B78F" transform="translate(307,359)"/>
<path d="M0 0 C0.671875 1.70703125 0.671875 1.70703125 1 4 C-0.109375 6.32421875 -0.109375 6.32421875 -1.75 8.6875 C-2.28109375 9.47511719 -2.8121875 10.26273437 -3.359375 11.07421875 C-5 13 -5 13 -8 14 C-6.6744419 10.37723685 -5.05653045 7.36494652 -2.875 4.1875 C-2.33617187 3.39730469 -1.79734375 2.60710937 -1.2421875 1.79296875 C-0.83226562 1.20128906 -0.42234375 0.60960937 0 0 Z " fill="#1AB290" transform="translate(207,264)"/>
<path d="M0 0 C0.66 0 1.32 0 2 0 C1.71561048 1.89693861 1.42216208 3.79252027 1.125 5.6875 C0.96257812 6.74324219 0.80015625 7.79898438 0.6328125 8.88671875 C0.04106931 11.79794914 -0.8031806 14.28955607 -2 17 C-3.25541557 13.23375329 -2.37061958 11.62811066 -1 8 C-2.32 8.33 -3.64 8.66 -5 9 C-4.67 7.68 -4.34 6.36 -4 5 C-3.01 5.33 -2.02 5.66 -1 6 C-0.67 4.02 -0.34 2.04 0 0 Z " fill="#1DB695" transform="translate(343,167)"/>
<path d="M0 0 C1.32 0.33 2.64 0.66 4 1 C4 1.66 4 2.32 4 3 C4.66 3 5.32 3 6 3 C6.66 4.98 7.32 6.96 8 9 C7.01 9.33 6.02 9.66 5 10 C4.1641146 8.52227402 3.33135744 7.04277811 2.5 5.5625 C2.0359375 4.73878906 1.571875 3.91507812 1.09375 3.06640625 C0 1 0 1 0 0 Z " fill="#24AF93" transform="translate(211,75)"/>
<path d="M0 0 C1.9375 0.25 1.9375 0.25 4 1 C4.66 1.99 5.32 2.98 6 4 C2.04 5.98 2.04 5.98 -2 8 C-2 7.01 -2 6.02 -2 5 C-1.34 5 -0.68 5 0 5 C-0.2784375 4.0409375 -0.2784375 4.0409375 -0.5625 3.0625 C-0.7790625 2.0415625 -0.7790625 2.0415625 -1 1 C-0.67 0.67 -0.34 0.34 0 0 Z " fill="#14B790" transform="translate(269,242)"/>
<path d="M0 0 C1.03719328 3.21456356 0.94068337 5.40925583 0.1875 8.6875 C-0.06966797 9.86892578 -0.06966797 9.86892578 -0.33203125 11.07421875 C-1 13 -1 13 -3 14 C-3.66 13.34 -4.32 12.68 -5 12 C-4.731875 11.505 -4.46375 11.01 -4.1875 10.5 C-2.56124507 7.0763054 -1.30484829 3.55867715 0 0 Z " fill="#0EB992" transform="translate(301,369)"/>
<path d="M0 0 C1.32 0 2.64 0 4 0 C4.28875 1.2375 4.5775 2.475 4.875 3.75 C5.46506031 6.1611817 6.02345753 8.04444585 7.1875 10.25 C8.248268 12.53473108 7.6871232 13.64136434 7 16 C5.83102715 13.52189684 4.66472456 11.04259881 3.5 8.5625 C3.16613281 7.85544922 2.83226562 7.14839844 2.48828125 6.41992188 C0 1.11328125 0 1.11328125 0 0 Z " fill="#22B491" transform="translate(299,282)"/>
<path d="M0 0 C4.55737263 0.43820891 7.57653445 0.85041169 11 4 C6.99799622 5.60080151 3.95443764 4.29279692 0 3 C0 2.01 0 1.02 0 0 Z " fill="#36AD8F" transform="translate(190,36)"/>
<path d="M0 0 C4.27343092 -0.36629408 6.48812804 0.59185923 10 3 C9.67 3.99 9.34 4.98 9 6 C2.25 3.375 2.25 3.375 0 0 Z " fill="#17B993" transform="translate(155,78)"/>
<path d="M0 0 C0.33 0.66 0.66 1.32 1 2 C1.66 2 2.32 2 3 2 C2.55090939 3.48199902 2.09043436 4.96055236 1.625 6.4375 C1.36976563 7.26121094 1.11453125 8.08492188 0.8515625 8.93359375 C0 11 0 11 -2 12 C-1.67 9.36 -1.34 6.72 -1 4 C-1.66 4 -2.32 4 -3 4 C-3 3.34 -3 2.68 -3 2 C-2.01 1.34 -1.02 0.68 0 0 Z " fill="#17B593" transform="translate(333,371)"/>
<path d="M0 0 C0.33 0 0.66 0 1 0 C1.25 6.625 1.25 6.625 -1 10 C-1.66 10 -2.32 10 -3 10 C-3.33 10.66 -3.66 11.32 -4 12 C-3.45660208 7.43545749 -2.20536179 4.0271824 0 0 Z " fill="#19B593" transform="translate(196,282)"/>
<path d="M0 0 C2.31 0 4.62 0 7 0 C4.45368965 2.97069541 1.57769851 4.4775751 -2 6 C-2.66 5.67 -3.32 5.34 -4 5 C-3.01 4.67 -2.02 4.34 -1 4 C-0.26676204 1.98491642 -0.26676204 1.98491642 0 0 Z " fill="#1EB091" transform="translate(286,235)"/>
<path d="M0 0 C4.37859255 0.50522222 6.81651224 3.17827222 10 6 C9.01 6.495 9.01 6.495 8 7 C5.8359375 6.00390625 5.8359375 6.00390625 3.375 4.5625 C2.55773437 4.08941406 1.74046875 3.61632813 0.8984375 3.12890625 C0.27195313 2.75636719 -0.35453125 2.38382813 -1 2 C-0.67 1.34 -0.34 0.68 0 0 Z " fill="#2AB59F" transform="translate(200,40)"/>
<path d="M0 0 C-0.33 3.63 -0.66 7.26 -1 11 C-3.71843438 7.37542083 -4.41789544 6.19115285 -5 2 C-1.125 0 -1.125 0 0 0 Z " fill="#14B291" transform="translate(343,345)"/>
<path d="M0 0 C1.65 1.65 3.3 3.3 5 5 C4.67 5.66 4.34 6.32 4 7 C3.64830932 8.32860925 3.31229724 9.66158328 3 11 C1.02 7.535 1.02 7.535 -1 4 C-0.34 4 0.32 4 1 4 C0.67 2.68 0.34 1.36 0 0 Z " fill="#26AF94" transform="translate(213,87)"/>
<path d="M0 0 C-0.33 0.99 -0.66 1.98 -1 3 C-4.5625 4.6875 -4.5625 4.6875 -8 6 C-8.33 5.01 -8.66 4.02 -9 3 C-5.55930376 0.70620251 -4.27709699 0 0 0 Z " fill="#3FAC94" transform="translate(251,72)"/>
<path d="M0 0 C-3.01887244 3.48331435 -5.56909529 4.79157144 -10 6 C-10 5.34 -10 4.68 -10 4 C-9.01 4 -8.02 4 -7 4 C-7 3.01 -7 2.02 -7 1 C-4.53721199 -0.231394 -2.7204945 -0.07159196 0 0 Z " fill="#19B090" transform="translate(307,227)"/>
<path d="M0 0 C0.556875 0.226875 1.11375 0.45375 1.6875 0.6875 C1.6875 1.6775 1.6875 2.6675 1.6875 3.6875 C0.759375 3.64625 -0.16875 3.605 -1.125 3.5625 C-4.47059719 3.41613661 -4.47059719 3.41613661 -7.3125 5.6875 C-7.3125 4.6975 -7.3125 3.7075 -7.3125 2.6875 C-3.28618421 -0.44407895 -3.28618421 -0.44407895 0 0 Z M-9.3125 5.6875 C-7.3125 6.6875 -7.3125 6.6875 -7.3125 6.6875 Z " fill="#0EBE9A" transform="translate(311.3125,204.3125)"/>
<path d="M0 0 C0.33 0 0.66 0 1 0 C1.144375 0.9075 1.28875 1.815 1.4375 2.75 C1.89426761 5.84375999 1.89426761 5.84375999 2.6875 8.125 C3.10583958 10.63503747 2.29258822 11.87103117 1 14 C0.34 13.34 -0.32 12.68 -1 12 C-0.9765625 9.1796875 -0.9765625 9.1796875 -0.625 5.875 C-0.51414062 4.77929688 -0.40328125 3.68359375 -0.2890625 2.5546875 C-0.14597656 1.29011719 -0.14597656 1.29011719 0 0 Z " fill="#23AA8E" transform="translate(292,55)"/>
<path d="M0 0 C0.66 0 1.32 0 2 0 C0.54955729 4.10958767 -1.51110752 7.43258745 -4 11 C-5 8 -5 8 -4.07421875 5.95703125 C-3.61660156 5.24933594 -3.15898437 4.54164063 -2.6875 3.8125 C-2.23761719 3.09707031 -1.78773438 2.38164062 -1.32421875 1.64453125 C-0.88722656 1.10183594 -0.45023437 0.55914062 0 0 Z " fill="#23AA8C" transform="translate(326,389)"/>
<path d="M0 0 C0.33 0 0.66 0 1 0 C1 1.65 1 3.3 1 5 C-1.31 5.66 -3.62 6.32 -6 7 C-5.02433888 5.83040013 -4.044375 4.66438823 -3.0625 3.5 C-2.51722656 2.8503125 -1.97195313 2.200625 -1.41015625 1.53125 C-0.71212891 0.77328125 -0.71212891 0.77328125 0 0 Z " fill="#18B28E" transform="translate(294,247)"/>
<path d="M0 0 C-0.75 2.9375 -0.75 2.9375 -2 6 C-4.125 6.875 -4.125 6.875 -6 7 C-5.39816251 4.97954558 -4.72693904 2.97888961 -4 1 C-2 0 -2 0 0 0 Z " fill="#24B28C" transform="translate(231,89)"/>
<path d="M0 0 C2.31 0.33 4.62 0.66 7 1 C7.33 1.99 7.66 2.98 8 4 C5.69 3.67 3.38 3.34 1 3 C0.67 2.01 0.34 1.02 0 0 Z " fill="#26B699" transform="translate(186,58)"/>
<path d="M0 0 C0.66 0.33 1.32 0.66 2 1 C2 1.99 2 2.98 2 4 C0.03533587 5.06775224 -1.96855359 6.06553465 -4 7 C-4.66 6.67 -5.32 6.34 -6 6 C-4.02 4.02 -2.04 2.04 0 0 Z " fill="#1CAB8D" transform="translate(301,240)"/>
<path d="M0 0 C2.15377564 2.62198774 3.40072174 4.64404172 4 8 C1.525 7.01 1.525 7.01 -1 6 C-0.67 4.02 -0.34 2.04 0 0 Z " fill="#14B590" transform="translate(330,273)"/>
<path d="M0 0 C0.99 0.33 1.98 0.66 3 1 C1.02 3.31 -0.96 5.62 -3 8 C-3.33 7.01 -3.66 6.02 -4 5 C-3.34 5 -2.68 5 -2 5 C-2 4.01 -2 3.02 -2 2 C-1.34 2 -0.68 2 0 2 C0 1.34 0 0.68 0 0 Z " fill="#1AAF8B" transform="translate(325,208)"/>
<path d="M0 0 C0.33 0.99 0.66 1.98 1 3 C-0.98 4.32 -2.96 5.64 -5 7 C-5 6.01 -5 5.02 -5 4 C-2.5 1.8125 -2.5 1.8125 0 0 Z " fill="#4CA798" transform="translate(243,56)"/>
<path d="M0 0 C0.99 0.33 1.98 0.66 3 1 C3.6875 3.25 3.6875 3.25 4 6 C3.01 7.32 2.02 8.64 1 10 C0.67 6.7 0.34 3.4 0 0 Z " fill="#0AC6A8" transform="translate(292,54)"/>
<path d="M0 0 C1.65 0 3.3 0 5 0 C4.67 1.32 4.34 2.64 4 4 C2.68 4.33 1.36 4.66 0 5 C0 3.35 0 1.7 0 0 Z " fill="#0ABE99" transform="translate(139,27)"/>
<path d="M0 0 C0.66 0 1.32 0 2 0 C2.55827609 1.26362492 3.09612097 2.5362919 3.625 3.8125 C3.92664063 4.52019531 4.22828125 5.22789062 4.5390625 5.95703125 C4.69117188 6.63121094 4.84328125 7.30539063 5 8 C4.01 9.485 4.01 9.485 3 11 C2.01 7.37 1.02 3.74 0 0 Z " fill="#1FB395" transform="translate(216,173)"/>
<path d="M0 0 C0.66 1.32 1.32 2.64 2 4 C1.34 4 0.68 4 0 4 C0.33 5.65 0.66 7.3 1 9 C-1 8 -1 8 -2.125 4.9375 C-2.41375 3.968125 -2.7025 2.99875 -3 2 C-2.01 2 -1.02 2 0 2 C0 1.34 0 0.68 0 0 Z " fill="#24B491" transform="translate(145,60)"/>
<path d="M0 0 C0.33 0.99 0.66 1.98 1 3 C0 4 0 4 -2.9375 4.1875 C-6 4 -6 4 -8 2 C-6.865625 1.855625 -5.73125 1.71125 -4.5625 1.5625 C-1.19222799 1.38828522 -1.19222799 1.38828522 0 0 Z " fill="#1AB49D" transform="translate(281,54)"/>
<path d="M0 0 C2.31 0.33 4.62 0.66 7 1 C6.67 1.99 6.34 2.98 6 4 C4.02 4 2.04 4 0 4 C0.66 3.67 1.32 3.34 2 3 C2 2.34 2 1.68 2 1 C1.34 0.67 0.68 0.34 0 0 Z " fill="#24AB91" transform="translate(152,33)"/>
<path d="M0 0 C0.99 0.66 1.98 1.32 3 2 C1.35 3.32 -0.3 4.64 -2 6 C-2.33 4.68 -2.66 3.36 -3 2 C-2.01 1.34 -1.02 0.68 0 0 Z " fill="#16B692" transform="translate(251,257)"/>
<path d="M0 0 C2.475 0.495 2.475 0.495 5 1 C5 2.32 5 3.64 5 5 C3.68 4.67 2.36 4.34 1 4 C0.67 2.68 0.34 1.36 0 0 Z " fill="#0CB896" transform="translate(147,69)"/>
<path d="M0 0 C0.33 0 0.66 0 1 0 C1 2.31 1 4.62 1 7 C-0.32 6.34 -1.64 5.68 -3 5 C-2.03114628 3.31503702 -1.03013277 1.64821244 0 0 Z " fill="#19B398" transform="translate(294,48)"/>
</svg>
